<svg xmlns="http://www.w3.org/2000/svg" width="17" height="9" viewBox="0 0 17 9">
    <g fill="none" fill-rule="evenodd">
        <g fill="#BFA071" fill-rule="nonzero">
            <g>
                <g>
                    <g>
                        <g>
                            <g>
                                <path d="M2.834-.146L-.162 2.85c-.309.309-.309.806 0 1.115L2.834 6.96c.15.15.35.232.56.232.208 0 .408-.081.558-.232l.076-.088c.23-.309.204-.745-.076-1.026L2.299 4.195l12.317.001c.432 0 .784-.352.784-.787l-.007-.107c-.052-.386-.383-.683-.783-.683H2.296L3.949.968c.308-.309.308-.806 0-1.114-.309-.309-.806-.309-1.115 0z" transform="translate(-918 -782) translate(250 585) translate(520 51) translate(89) translate(0 143) matrix(-1 0 0 1 75 4)"/>
                            </g>
                        </g>
                    </g>
                </g>
            </g>
        </g>
    </g>
</svg>
