<svg xmlns="http://www.w3.org/2000/svg" width="56" height="58" viewBox="0 0 56 58">
    <g fill="none" fill-rule="evenodd">
        <g fill="#BFA071" fill-rule="nonzero">
            <g>
                <g>
                    <path d="M50.454 24.638h-2.578V1.68c0-.928-.752-1.68-1.68-1.68H1.736C.808 0 .056.752.056 1.68v43.03c0 3.054 2.484 5.565 5.536 5.598h9.83v5.128c0 .927.753 1.68 1.68 1.68H54.26c.927 0 1.68-.753 1.68-1.68V30.124c0-3.025-2.461-5.486-5.486-5.486zM3.416 3.36h41.1v21.278h-31.22H13.288c-2.95 0-5.357 2.307-5.48 5.252-.002.024-.002.047-.002.07v14.75c0 1.215-.987 2.217-2.2 2.238-1.209-.026-2.19-1.025-2.19-2.238V3.36zm7.278 43.589c.298-.677.47-1.45.47-2.239V30.001c.063-1.123.987-2.003 2.133-2.003 1.172 0 2.125.954 2.125 2.127v16.824h-4.728zm41.886 6.807H18.782V30.125c0-.74-.153-1.473-.429-2.127h32.101c1.172 0 2.126.954 2.126 2.126v23.632zM8.746 11.433h1.711v6.562c0 .928.753 1.68 1.68 1.68.928 0 1.68-.752 1.68-1.68v-6.562h1.712c.927 0 1.68-.753 1.68-1.68 0-.928-.753-1.68-1.68-1.68H8.746c-.928 0-1.68.752-1.68 1.68 0 .927.752 1.68 1.68 1.68zm11.343 8.242c.927 0 1.68-.752 1.68-1.68v-.972h3.422v.972c0 .928.753 1.68 1.68 1.68.928 0 1.68-.752 1.68-1.68v-4.85c0-2.797-2.275-5.072-5.071-5.072s-5.071 2.275-5.071 5.071v4.851c0 .928.752 1.68 1.68 1.68zm3.391-8.242c.944 0 1.711.767 1.711 1.711v.519H21.77v-.519c0-.944.767-1.711 1.711-1.711zm7.856 7.86c.716.588 1.775.486 2.365-.23l2.094-2.546 2.094 2.545c.59.717 1.649.82 2.365.23.716-.59.819-1.648.23-2.364l-2.514-3.054 2.513-3.054c.59-.716.487-1.775-.23-2.364-.716-.59-1.774-.487-2.364.23l-2.094 2.544-2.094-2.545c-.59-.716-1.648-.819-2.365-.23-.716.59-.819 1.649-.23 2.365l2.514 3.054-2.513 3.054c-.59.716-.487 1.775.23 2.364zm4.408 15.984H24.172c-.927 0-1.68.752-1.68 1.68 0 .928.753 1.68 1.68 1.68h11.572c.928 0 1.68-.752 1.68-1.68 0-.928-.752-1.68-1.68-1.68zm0 8.064H24.172c-.927 0-1.68.752-1.68 1.68 0 .927.753 1.68 1.68 1.68h11.572c.928 0 1.68-.753 1.68-1.68 0-.928-.752-1.68-1.68-1.68zm12.58-8.064H42.65c-.928 0-1.68.752-1.68 1.68 0 .928.752 1.68 1.68 1.68h5.674c.928 0 1.68-.752 1.68-1.68 0-.928-.752-1.68-1.68-1.68zm0 8.064H42.65c-.928 0-1.68.752-1.68 1.68 0 .927.752 1.68 1.68 1.68h5.674c.928 0 1.68-.753 1.68-1.68 0-.928-.752-1.68-1.68-1.68z" transform="translate(-770 -636) translate(250 585) translate(520 51)"/>
                </g>
            </g>
        </g>
    </g>
</svg>
