<svg xmlns="http://www.w3.org/2000/svg" width="9" height="17" viewBox="0 0 9 17">
    <g fill="none" fill-rule="evenodd">
        <g fill="#FFF" fill-rule="nonzero">
            <g>
                <path d="M247.287 369.054h1.953v7.672c0 .151.129.274.288.274h3.311c.159 0 .287-.123.287-.274v-7.636h2.246c.146 0 .268-.104.285-.243l.341-2.824c.01-.078-.016-.155-.07-.214-.055-.058-.133-.091-.215-.091h-2.586v-1.77c0-.535.3-.805.895-.805h1.69c.16 0 .288-.123.288-.274v-2.593c0-.151-.129-.274-.287-.274h-2.33l-.107-.002c-.405 0-1.81.076-2.92 1.05-1.23 1.08-1.06 2.373-1.018 2.597v2.07h-2.05c-.16 0-.288.123-.288.275v2.788c0 .151.129.274.287.274z" transform="translate(-267 -11145) translate(20 10785)"/>
            </g>
        </g>
    </g>
</svg>
