<svg xmlns="http://www.w3.org/2000/svg" width="51" height="71" viewBox="0 0 51 71">
    <g fill="none" fill-rule="evenodd">
        <g fill="#BFA071" fill-rule="nonzero">
            <g>
                <g>
                    <g>
                        <path d="M42.748 11.104h-2.4C38.454 4.654 32.53 0 25.515 0c-7.02 0-12.95 4.654-14.837 11.104h-2.42c-3.226 0-5.857 2.638-5.857 5.863v7.128c0 3.226 2.63 5.909 5.857 5.909h2.82c2.231 5.7 7.856 9.898 14.437 9.898 6.558 0 12.161-4.198 14.412-9.898h2.821c3.226 0 5.852-2.683 5.852-5.909v-7.128c0-3.225-2.626-5.863-5.852-5.863zm-34.49 14.4c-.745 0-1.357-.664-1.357-1.409v-7.128c0-.744.612-1.363 1.357-1.363h1.793s-.018 9.45.005 9.9H8.258zm28.192-3.042c-.6 2.443-2.83 4.242-5.459 4.242h-6.99v4.5h6.99c1.256 0 2.47-.22 3.585-.628-1.98 2.894-5.298 4.798-9.061 4.798-6.054 0-10.965-4.924-10.965-10.977v-8.912c0-6.052 4.896-10.977 10.95-10.977 6.054 0 10.95 4.925 10.95 10.977v6.977zm-32.1 12.82l6.248.025-.018 4.5-6.059-.024 3.304 25.77 35.353.148 3.303-25.77-6.362-.024.017-4.499 6.524.025c2.578 0 4.643 2.367 4.304 4.92l-3.341 26.062c-.287 2.163-2.141 3.786-4.314 3.786l-35.626-.15c-2.163 0-4.016-1.623-4.302-3.775L.037 40.192c-.34-2.555 1.74-4.91 4.313-4.91zM32.1 50.555v4.5H19.5v-4.5h12.6zm10.648-34.95c.745 0 1.353.62 1.353 1.363v7.128c0 .745-.608 1.409-1.353 1.409h-1.804v-.013l.001-.287v-.126l.001-.684v-.212l.001-.974v-.27l.001-1.461v-.306l.001-2.142v-.293l.002-2.832v-.3h1.797z" transform="translate(-1455 -1098) translate(250 955) translate(1040 103) translate(165 40)"/>
                    </g>
                </g>
            </g>
        </g>
    </g>
</svg>
