<svg xmlns="http://www.w3.org/2000/svg" width="16" height="15" viewBox="0 0 16 15">
    <g fill="none" fill-rule="evenodd">
        <g fill="#FFF" fill-rule="nonzero">
            <g>
                <g>
                    <path d="M16 9.109v5.748h-3.43V9.494c0-1.347-.495-2.267-1.737-2.267-.947 0-1.511.62-1.76 1.22-.09.213-.113.512-.113.812v5.598H5.53s.046-9.083 0-10.025h3.43v1.421l-.023.033h.023v-.033c.455-.682 1.27-1.656 3.091-1.656C14.308 4.597 16 6.03 16 9.109zM1.941 0C.768 0 0 .748 0 1.732c0 .962.745 1.733 1.896 1.733h.023c1.196 0 1.94-.77 1.94-1.733C3.836.748 3.115 0 1.94 0zM.204 14.857h3.429V4.832H.203v10.025z" transform="translate(-318 -11145) translate(20 10785) translate(298 360)"/>
                </g>
            </g>
        </g>
    </g>
</svg>
