<svg xmlns="http://www.w3.org/2000/svg" width="59" height="59" viewBox="0 0 59 59">
    <g fill="none" fill-rule="evenodd">
        <g fill="#BFA071" fill-rule="nonzero">
            <g>
                <g>
                    <path d="M51.083 15.312c1.829-.592 3.551-1.57 5.035-2.919l-2.334-2.568c-3.26 2.963-8.047 3.536-11.914 1.427-2.293-1.25-4.768-2.14-7.32-2.65.467-.835.734-1.795.734-2.818C35.284 2.594 32.69 0 29.5 0c-3.19 0-5.784 2.595-5.784 5.784 0 1.023.267 1.983.735 2.817-2.553.51-5.028 1.4-7.321 2.651-3.867 2.11-8.655 1.536-11.914-1.427l-2.334 2.568c1.6 1.455 3.477 2.477 5.467 3.05L0 29.008v2.226c0 6.06 4.93 10.99 10.99 10.99h2.314c5.67 0 10.41-4.315 10.99-9.833v-3.357l-7.908-13.707c.822-.263 1.628-.605 2.406-1.029 2.825-1.54 5.88-2.43 8.973-2.672v36.66h-2.691c-4.95 0-8.978 4.027-8.978 8.978V59h26.708v-1.735c0-4.951-4.028-8.979-8.978-8.979h-2.59v-36.66c3.091.243 6.147 1.132 8.972 2.673.913.498 1.865.884 2.836 1.16l-8.338 13.55v2.226c0 6.06 4.93 10.99 10.99 10.99h2.314c5.67 0 10.41-4.315 10.99-9.833v-3.357l-7.917-13.723zm-37.78 23.443H10.99c-3.55 0-6.532-2.472-7.317-5.784h16.949c-.786 3.312-3.769 5.784-7.318 5.784zM3.774 29.5l8.187-13.304h.92L20.555 29.5H3.773zm35.28 26.03H19.846c.729-2.19 2.797-3.773 5.228-3.773h8.752c2.43 0 4.499 1.583 5.227 3.772zM27.186 5.783c0-1.275 1.038-2.313 2.314-2.313s2.314 1.038 2.314 2.313c0 1.276-1.038 2.314-2.314 2.314s-2.314-1.038-2.314-2.314zm20.824 32.97h-2.314c-3.55 0-6.532-2.47-7.317-5.783h16.948c-.785 3.312-3.768 5.784-7.317 5.784zM38.479 29.5l8.187-13.304h.92L55.261 29.5H38.48z" transform="translate(-290 -636) translate(250 585) translate(40 51)"/>
                </g>
            </g>
        </g>
    </g>
</svg>
