<svg xmlns="http://www.w3.org/2000/svg" width="57" height="57" viewBox="0 0 57 57">
    <g fill="none" fill-rule="evenodd">
        <g fill="#BFA071" fill-rule="nonzero">
            <g>
                <g>
                    <path d="M51.46 2.142C48.33.76 44.204 0 39.844 0s-8.484.76-11.614 2.142c-3.565 1.572-5.528 3.829-5.528 6.354v14.392c-1.653-.521-3.41-.802-5.233-.802-9.626 0-17.457 7.83-17.457 17.457C.013 49.169 7.844 57 17.47 57c6.622 0 12.395-3.707 15.353-9.154 2.188.462 4.587.704 7.022.704 4.36 0 8.485-.76 11.615-2.141 3.564-1.573 5.527-3.83 5.527-6.355V8.496c0-2.525-1.963-4.782-5.528-6.354zM29.578 5.197C32.293 4 35.939 3.34 39.845 3.34c3.906 0 7.552.66 10.266 1.857 2.181.962 3.536 2.227 3.536 3.3 0 1.072-1.355 2.336-3.536 3.298-2.714 1.198-6.36 1.858-10.266 1.858-3.906 0-7.552-.66-10.266-1.858-2.181-.962-3.536-2.226-3.536-3.299s1.355-2.337 3.536-3.299zM17.469 53.66c-7.783 0-14.116-6.333-14.116-14.117 0-7.785 6.333-14.117 14.117-14.117 7.784 0 14.117 6.332 14.117 14.117 0 7.784-6.333 14.117-14.117 14.117zm32.642-10.307c-2.714 1.198-6.36 1.857-10.266 1.857-1.971 0-3.908-.173-5.697-.505.432-1.395.694-2.864.76-4.383 1.587.223 3.238.339 4.937.339 4.36 0 8.485-.76 11.615-2.142.814-.36 1.544-.755 2.187-1.18v2.715c0 1.073-1.355 2.337-3.536 3.3zm0-7.89c-2.714 1.198-6.36 1.858-10.266 1.858-1.777 0-3.491-.138-5.116-.405-.253-1.674-.747-3.27-1.442-4.754 2.054.399 4.283.61 6.558.61 4.36 0 8.485-.761 11.615-2.142.814-.36 1.544-.755 2.187-1.181v2.716c0 1.072-1.355 2.336-3.536 3.299zm0-7.889c-2.714 1.198-6.36 1.858-10.266 1.858-3.453 0-6.749-.527-9.338-1.485-1.276-1.433-2.783-2.655-4.464-3.606V21.56c.643.426 1.373.821 2.188 1.18 3.13 1.381 7.254 2.142 11.614 2.142 4.36 0 8.485-.76 11.615-2.142.814-.359 1.544-.754 2.187-1.18v2.715c0 1.073-1.355 2.337-3.536 3.3zM19.14 29.228v2.253h3.025v3.34h-6.047c-.807 0-1.463.656-1.463 1.463 0 .806.656 1.462 1.463 1.462H19.7c2.718 0 4.929 2.211 4.929 4.93 0 2.717-2.211 4.928-4.93 4.928h-.56v2.253H15.8v-2.253h-3.819v-3.34H19.7c.876 0 1.589-.713 1.589-1.589s-.713-1.59-1.59-1.59h-3.581c-2.648 0-4.802-2.153-4.802-4.801 0-2.541 1.984-4.627 4.484-4.79v-2.266h3.34zM53.647 13.67v2.716c0 1.072-1.355 2.336-3.536 3.299-2.714 1.197-6.36 1.857-10.266 1.857-3.906 0-7.552-.66-10.266-1.857-2.181-.963-3.536-2.227-3.536-3.3V13.67c.643.426 1.373.821 2.188 1.18 3.13 1.382 7.254 2.142 11.614 2.142 4.36 0 8.485-.76 11.615-2.141.814-.36 1.544-.755 2.187-1.181z" transform="translate(-1250 -636) translate(250 585) translate(1000 51)"/>
                </g>
            </g>
        </g>
    </g>
</svg>
